<mxfile host="app.diagrams.net" modified="2023-12-05T16:33:36.501Z" agent="Mozilla/5.0 (Windows NT 10.0; Win64; x64) AppleWebKit/537.36 (KHTML, like Gecko) Chrome/119.0.0.0 Safari/537.36" etag="S2SaAeN69g0IHOoNoKi8" version="22.1.5" type="device" pages="2">
  <diagram name="Seite-1" id="WYBV3zNq-qYEnUJEgQ9p">
    <mxGraphModel dx="1548" dy="840" grid="1" gridSize="10" guides="1" tooltips="1" connect="1" arrows="1" fold="1" page="1" pageScale="1" pageWidth="2339" pageHeight="3300" math="0" shadow="0">
      <root>
        <mxCell id="0" />
        <mxCell id="1" parent="0" />
        <mxCell id="ddWqyuGqhAqVi49b2kgC-1" value="" style="ellipse;html=1;shape=startState;fillColor=#000000;strokeColor=#ff0000;" vertex="1" parent="1">
          <mxGeometry x="40" y="370" width="30" height="30" as="geometry" />
        </mxCell>
        <mxCell id="ddWqyuGqhAqVi49b2kgC-2" value="" style="edgeStyle=orthogonalEdgeStyle;html=1;verticalAlign=bottom;endArrow=open;endSize=8;strokeColor=#ff0000;rounded=0;entryX=0;entryY=0.5;entryDx=0;entryDy=0;" edge="1" source="ddWqyuGqhAqVi49b2kgC-1" parent="1" target="ddWqyuGqhAqVi49b2kgC-3">
          <mxGeometry relative="1" as="geometry">
            <mxPoint x="160" y="385" as="targetPoint" />
          </mxGeometry>
        </mxCell>
        <mxCell id="ddWqyuGqhAqVi49b2kgC-3" value="user" style="rhombus;whiteSpace=wrap;html=1;fontColor=#000000;fillColor=#ffffc0;strokeColor=#ff0000;" vertex="1" parent="1">
          <mxGeometry x="160" y="365" width="80" height="40" as="geometry" />
        </mxCell>
        <mxCell id="ddWqyuGqhAqVi49b2kgC-4" value="no" style="html=1;align=left;verticalAlign=bottom;endArrow=open;endSize=8;strokeColor=#ff0000;rounded=0;" edge="1" source="ddWqyuGqhAqVi49b2kgC-3" parent="1" target="ddWqyuGqhAqVi49b2kgC-9">
          <mxGeometry x="-1" relative="1" as="geometry">
            <mxPoint x="330" y="385" as="targetPoint" />
          </mxGeometry>
        </mxCell>
        <mxCell id="ddWqyuGqhAqVi49b2kgC-5" value="yes" style="html=1;align=left;verticalAlign=top;endArrow=open;endSize=8;strokeColor=#ff0000;rounded=0;" edge="1" source="ddWqyuGqhAqVi49b2kgC-3" parent="1" target="ddWqyuGqhAqVi49b2kgC-7">
          <mxGeometry x="-1" relative="1" as="geometry">
            <mxPoint x="200" y="480" as="targetPoint" />
          </mxGeometry>
        </mxCell>
        <mxCell id="ddWqyuGqhAqVi49b2kgC-7" value="login" style="rounded=1;whiteSpace=wrap;html=1;arcSize=40;fontColor=#000000;fillColor=#ffffc0;strokeColor=#ff0000;" vertex="1" parent="1">
          <mxGeometry x="170" y="450" width="60" height="40" as="geometry" />
        </mxCell>
        <mxCell id="ddWqyuGqhAqVi49b2kgC-8" value="" style="html=1;verticalAlign=bottom;endArrow=open;endSize=8;strokeColor=#ff0000;rounded=0;" edge="1" source="ddWqyuGqhAqVi49b2kgC-7" parent="1" target="JYT8Hz0EhNFGr_55AyaU-20">
          <mxGeometry relative="1" as="geometry">
            <mxPoint x="220" y="580" as="targetPoint" />
          </mxGeometry>
        </mxCell>
        <mxCell id="ddWqyuGqhAqVi49b2kgC-9" value="register" style="rounded=1;whiteSpace=wrap;html=1;arcSize=40;fontColor=#000000;fillColor=#ffffc0;strokeColor=#ff0000;" vertex="1" parent="1">
          <mxGeometry x="294" y="370" width="66" height="40" as="geometry" />
        </mxCell>
        <mxCell id="ddWqyuGqhAqVi49b2kgC-10" value="" style="html=1;verticalAlign=bottom;endArrow=open;endSize=8;strokeColor=#ff0000;rounded=0;" edge="1" source="ddWqyuGqhAqVi49b2kgC-9" parent="1" target="ddWqyuGqhAqVi49b2kgC-11">
          <mxGeometry relative="1" as="geometry">
            <mxPoint x="354" y="490" as="targetPoint" />
          </mxGeometry>
        </mxCell>
        <mxCell id="ddWqyuGqhAqVi49b2kgC-11" value="create default space" style="rounded=1;whiteSpace=wrap;html=1;arcSize=40;fontColor=#000000;fillColor=#ffffc0;strokeColor=#ff0000;" vertex="1" parent="1">
          <mxGeometry x="390" y="370" width="120" height="40" as="geometry" />
        </mxCell>
        <mxCell id="ddWqyuGqhAqVi49b2kgC-12" value="" style="html=1;verticalAlign=bottom;endArrow=open;endSize=8;strokeColor=#ff0000;rounded=0;" edge="1" source="ddWqyuGqhAqVi49b2kgC-11" parent="1" target="JYT8Hz0EhNFGr_55AyaU-13">
          <mxGeometry relative="1" as="geometry">
            <mxPoint x="570" y="390" as="targetPoint" />
          </mxGeometry>
        </mxCell>
        <mxCell id="JYT8Hz0EhNFGr_55AyaU-13" value="create to-do lists" style="rounded=1;whiteSpace=wrap;html=1;arcSize=40;fontColor=#000000;fillColor=#ffffc0;strokeColor=#ff0000;" vertex="1" parent="1">
          <mxGeometry x="545" y="370" width="120" height="40" as="geometry" />
        </mxCell>
        <mxCell id="JYT8Hz0EhNFGr_55AyaU-14" value="" style="html=1;verticalAlign=bottom;endArrow=open;endSize=8;strokeColor=#ff0000;rounded=0;" edge="1" source="JYT8Hz0EhNFGr_55AyaU-13" parent="1" target="JYT8Hz0EhNFGr_55AyaU-24">
          <mxGeometry relative="1" as="geometry">
            <mxPoint x="770" y="390" as="targetPoint" />
          </mxGeometry>
        </mxCell>
        <mxCell id="JYT8Hz0EhNFGr_55AyaU-32" value="" style="edgeStyle=orthogonalEdgeStyle;rounded=0;orthogonalLoop=1;jettySize=auto;html=1;fillColor=#e51400;strokeColor=#FF0000;endArrow=open;endFill=0;" edge="1" parent="1" source="JYT8Hz0EhNFGr_55AyaU-17" target="JYT8Hz0EhNFGr_55AyaU-30">
          <mxGeometry relative="1" as="geometry" />
        </mxCell>
        <mxCell id="JYT8Hz0EhNFGr_55AyaU-17" value="create to-do lists" style="rounded=1;whiteSpace=wrap;html=1;arcSize=40;fontColor=#000000;fillColor=#ffffc0;strokeColor=#ff0000;" vertex="1" parent="1">
          <mxGeometry x="60" y="620" width="120" height="40" as="geometry" />
        </mxCell>
        <mxCell id="JYT8Hz0EhNFGr_55AyaU-18" value="select&amp;nbsp;existing space" style="rounded=1;whiteSpace=wrap;html=1;arcSize=40;fontColor=#000000;fillColor=#ffffc0;strokeColor=#ff0000;" vertex="1" parent="1">
          <mxGeometry x="240" y="620" width="120" height="40" as="geometry" />
        </mxCell>
        <mxCell id="JYT8Hz0EhNFGr_55AyaU-19" value="" style="edgeStyle=orthogonalEdgeStyle;html=1;verticalAlign=bottom;endArrow=open;endSize=8;strokeColor=#ff0000;rounded=0;" edge="1" source="JYT8Hz0EhNFGr_55AyaU-18" parent="1" target="JYT8Hz0EhNFGr_55AyaU-38">
          <mxGeometry relative="1" as="geometry">
            <mxPoint x="440" y="690" as="targetPoint" />
          </mxGeometry>
        </mxCell>
        <mxCell id="JYT8Hz0EhNFGr_55AyaU-20" value="create space" style="rhombus;whiteSpace=wrap;html=1;fontColor=#000000;fillColor=#ffffc0;strokeColor=#ff0000;" vertex="1" parent="1">
          <mxGeometry x="160" y="530" width="80" height="40" as="geometry" />
        </mxCell>
        <mxCell id="JYT8Hz0EhNFGr_55AyaU-21" value="no" style="edgeStyle=orthogonalEdgeStyle;html=1;align=left;verticalAlign=bottom;endArrow=open;endSize=8;strokeColor=#ff0000;rounded=0;entryX=0.5;entryY=0;entryDx=0;entryDy=0;" edge="1" source="JYT8Hz0EhNFGr_55AyaU-20" parent="1" target="JYT8Hz0EhNFGr_55AyaU-18">
          <mxGeometry x="-0.819" y="10" relative="1" as="geometry">
            <mxPoint x="240" y="640" as="targetPoint" />
            <Array as="points">
              <mxPoint x="300" y="550" />
            </Array>
            <mxPoint as="offset" />
          </mxGeometry>
        </mxCell>
        <mxCell id="JYT8Hz0EhNFGr_55AyaU-22" value="yes" style="edgeStyle=orthogonalEdgeStyle;html=1;align=left;verticalAlign=top;endArrow=open;endSize=8;strokeColor=#ff0000;rounded=0;" edge="1" source="JYT8Hz0EhNFGr_55AyaU-20" parent="1" target="JYT8Hz0EhNFGr_55AyaU-17">
          <mxGeometry x="-0.6653" y="-20" relative="1" as="geometry">
            <mxPoint x="100" y="610" as="targetPoint" />
            <Array as="points">
              <mxPoint x="120" y="550" />
            </Array>
            <mxPoint as="offset" />
          </mxGeometry>
        </mxCell>
        <mxCell id="JYT8Hz0EhNFGr_55AyaU-24" value="edit to-do list" style="rounded=1;whiteSpace=wrap;html=1;arcSize=40;fontColor=#000000;fillColor=#ffffc0;strokeColor=#ff0000;" vertex="1" parent="1">
          <mxGeometry x="710" y="370" width="120" height="40" as="geometry" />
        </mxCell>
        <mxCell id="JYT8Hz0EhNFGr_55AyaU-25" value="" style="html=1;verticalAlign=bottom;endArrow=open;endSize=8;strokeColor=#ff0000;rounded=0;" edge="1" source="JYT8Hz0EhNFGr_55AyaU-24" parent="1" target="JYT8Hz0EhNFGr_55AyaU-125">
          <mxGeometry relative="1" as="geometry">
            <mxPoint x="900" y="390" as="targetPoint" />
          </mxGeometry>
        </mxCell>
        <mxCell id="JYT8Hz0EhNFGr_55AyaU-26" value="create tasks" style="rounded=1;whiteSpace=wrap;html=1;arcSize=40;fontColor=#000000;fillColor=#ffffc0;strokeColor=#ff0000;" vertex="1" parent="1">
          <mxGeometry x="990" y="370" width="120" height="40" as="geometry" />
        </mxCell>
        <mxCell id="JYT8Hz0EhNFGr_55AyaU-27" value="" style="edgeStyle=orthogonalEdgeStyle;html=1;verticalAlign=bottom;endArrow=open;endSize=8;strokeColor=#ff0000;rounded=0;" edge="1" source="JYT8Hz0EhNFGr_55AyaU-26" parent="1" target="JYT8Hz0EhNFGr_55AyaU-50">
          <mxGeometry relative="1" as="geometry">
            <mxPoint x="1140" y="390" as="targetPoint" />
          </mxGeometry>
        </mxCell>
        <mxCell id="JYT8Hz0EhNFGr_55AyaU-35" value="" style="edgeStyle=orthogonalEdgeStyle;rounded=0;orthogonalLoop=1;jettySize=auto;html=1;fillColor=#e51400;strokeColor=#FF0000;endArrow=open;endFill=0;" edge="1" parent="1" source="JYT8Hz0EhNFGr_55AyaU-30" target="JYT8Hz0EhNFGr_55AyaU-149">
          <mxGeometry relative="1" as="geometry">
            <mxPoint x="150" y="790" as="targetPoint" />
          </mxGeometry>
        </mxCell>
        <mxCell id="JYT8Hz0EhNFGr_55AyaU-30" value="edit to-do list" style="rounded=1;whiteSpace=wrap;html=1;arcSize=40;fontColor=#000000;fillColor=#ffffc0;strokeColor=#ff0000;" vertex="1" parent="1">
          <mxGeometry x="60" y="700" width="120" height="40" as="geometry" />
        </mxCell>
        <mxCell id="JYT8Hz0EhNFGr_55AyaU-33" value="create tasks" style="rounded=1;whiteSpace=wrap;html=1;arcSize=40;fontColor=#000000;fillColor=#ffffc0;strokeColor=#FF0000;" vertex="1" parent="1">
          <mxGeometry x="250" y="760" width="120" height="40" as="geometry" />
        </mxCell>
        <mxCell id="JYT8Hz0EhNFGr_55AyaU-34" value="" style="edgeStyle=orthogonalEdgeStyle;html=1;verticalAlign=bottom;endArrow=open;endSize=8;strokeColor=#ff0000;rounded=0;" edge="1" parent="1" source="JYT8Hz0EhNFGr_55AyaU-33" target="JYT8Hz0EhNFGr_55AyaU-63">
          <mxGeometry relative="1" as="geometry">
            <mxPoint x="130" y="880" as="targetPoint" />
          </mxGeometry>
        </mxCell>
        <mxCell id="JYT8Hz0EhNFGr_55AyaU-38" value="select to-do list" style="rhombus;whiteSpace=wrap;html=1;fontColor=#000000;fillColor=#ffffc0;strokeColor=#ff0000;" vertex="1" parent="1">
          <mxGeometry x="430" y="620" width="110" height="40" as="geometry" />
        </mxCell>
        <mxCell id="JYT8Hz0EhNFGr_55AyaU-39" value="no" style="edgeStyle=orthogonalEdgeStyle;html=1;align=left;verticalAlign=bottom;endArrow=open;endSize=8;strokeColor=#ff0000;rounded=0;" edge="1" source="JYT8Hz0EhNFGr_55AyaU-38" parent="1" target="JYT8Hz0EhNFGr_55AyaU-41">
          <mxGeometry x="-1" relative="1" as="geometry">
            <mxPoint x="660" y="640" as="targetPoint" />
          </mxGeometry>
        </mxCell>
        <mxCell id="JYT8Hz0EhNFGr_55AyaU-40" value="yes" style="edgeStyle=orthogonalEdgeStyle;html=1;align=left;verticalAlign=top;endArrow=open;endSize=8;strokeColor=#ff0000;rounded=0;" edge="1" source="JYT8Hz0EhNFGr_55AyaU-38" parent="1" target="JYT8Hz0EhNFGr_55AyaU-43">
          <mxGeometry x="-1" relative="1" as="geometry">
            <mxPoint x="450" y="840" as="targetPoint" />
          </mxGeometry>
        </mxCell>
        <mxCell id="JYT8Hz0EhNFGr_55AyaU-41" value="create to-do lists" style="rounded=1;whiteSpace=wrap;html=1;arcSize=40;fontColor=#000000;fillColor=#ffffc0;strokeColor=#ff0000;" vertex="1" parent="1">
          <mxGeometry x="620" y="620" width="120" height="40" as="geometry" />
        </mxCell>
        <mxCell id="JYT8Hz0EhNFGr_55AyaU-42" value="" style="html=1;verticalAlign=bottom;endArrow=open;endSize=8;strokeColor=#ff0000;rounded=0;entryX=0;entryY=0.5;entryDx=0;entryDy=0;" edge="1" parent="1" source="JYT8Hz0EhNFGr_55AyaU-41" target="JYT8Hz0EhNFGr_55AyaU-122">
          <mxGeometry relative="1" as="geometry">
            <mxPoint x="800" y="640" as="targetPoint" />
          </mxGeometry>
        </mxCell>
        <mxCell id="JYT8Hz0EhNFGr_55AyaU-43" value="edit to-do lists" style="rounded=1;whiteSpace=wrap;html=1;arcSize=40;fontColor=#000000;fillColor=#ffffc0;strokeColor=#ff0000;" vertex="1" parent="1">
          <mxGeometry x="425" y="710" width="120" height="40" as="geometry" />
        </mxCell>
        <mxCell id="JYT8Hz0EhNFGr_55AyaU-44" value="" style="html=1;verticalAlign=bottom;endArrow=open;endSize=8;strokeColor=#ff0000;rounded=0;" edge="1" parent="1" source="JYT8Hz0EhNFGr_55AyaU-43" target="JYT8Hz0EhNFGr_55AyaU-88">
          <mxGeometry relative="1" as="geometry">
            <mxPoint x="485" y="780" as="targetPoint" />
          </mxGeometry>
        </mxCell>
        <mxCell id="JYT8Hz0EhNFGr_55AyaU-45" value="create tasks" style="rounded=1;whiteSpace=wrap;html=1;arcSize=40;fontColor=#000000;fillColor=#ffffc0;strokeColor=#ff0000;" vertex="1" parent="1">
          <mxGeometry x="900" y="620" width="120" height="40" as="geometry" />
        </mxCell>
        <mxCell id="JYT8Hz0EhNFGr_55AyaU-46" value="" style="edgeStyle=orthogonalEdgeStyle;html=1;verticalAlign=bottom;endArrow=open;endSize=8;strokeColor=#ff0000;rounded=0;entryX=0;entryY=0.5;entryDx=0;entryDy=0;" edge="1" parent="1" source="JYT8Hz0EhNFGr_55AyaU-45" target="JYT8Hz0EhNFGr_55AyaU-47">
          <mxGeometry relative="1" as="geometry">
            <mxPoint x="1030" y="550" as="targetPoint" />
            <Array as="points">
              <mxPoint x="1110" y="640" />
              <mxPoint x="1110" y="590" />
            </Array>
          </mxGeometry>
        </mxCell>
        <mxCell id="JYT8Hz0EhNFGr_55AyaU-47" value="finished" style="rhombus;whiteSpace=wrap;html=1;fontColor=#000000;fillColor=#ffffc0;strokeColor=#ff0000;" vertex="1" parent="1">
          <mxGeometry x="1150" y="570" width="80" height="40" as="geometry" />
        </mxCell>
        <mxCell id="JYT8Hz0EhNFGr_55AyaU-48" value="yes" style="edgeStyle=orthogonalEdgeStyle;html=1;align=left;verticalAlign=bottom;endArrow=open;endSize=8;strokeColor=#ff0000;rounded=0;" edge="1" source="JYT8Hz0EhNFGr_55AyaU-47" parent="1" target="JYT8Hz0EhNFGr_55AyaU-61">
          <mxGeometry x="-1" y="-20" relative="1" as="geometry">
            <mxPoint x="1190" y="550" as="targetPoint" />
            <mxPoint as="offset" />
          </mxGeometry>
        </mxCell>
        <mxCell id="JYT8Hz0EhNFGr_55AyaU-49" value="no" style="edgeStyle=orthogonalEdgeStyle;html=1;align=left;verticalAlign=top;endArrow=open;endSize=8;strokeColor=#ff0000;rounded=0;entryX=0.517;entryY=0.5;entryDx=0;entryDy=0;entryPerimeter=0;exitX=0.5;exitY=1;exitDx=0;exitDy=0;" edge="1" source="JYT8Hz0EhNFGr_55AyaU-47" parent="1" target="JYT8Hz0EhNFGr_55AyaU-109">
          <mxGeometry x="-0.8662" y="-20" relative="1" as="geometry">
            <mxPoint x="1050" y="770" as="targetPoint" />
            <Array as="points">
              <mxPoint x="1190" y="680" />
              <mxPoint x="1050" y="680" />
              <mxPoint x="1050" y="764" />
            </Array>
            <mxPoint as="offset" />
          </mxGeometry>
        </mxCell>
        <mxCell id="JYT8Hz0EhNFGr_55AyaU-50" value="finished" style="rhombus;whiteSpace=wrap;html=1;fontColor=#000000;fillColor=#ffffc0;strokeColor=#ff0000;" vertex="1" parent="1">
          <mxGeometry x="1150" y="370" width="80" height="40" as="geometry" />
        </mxCell>
        <mxCell id="JYT8Hz0EhNFGr_55AyaU-51" value="no" style="edgeStyle=orthogonalEdgeStyle;html=1;align=left;verticalAlign=bottom;endArrow=open;endSize=8;strokeColor=#ff0000;rounded=0;entryX=0.583;entryY=0.3;entryDx=0;entryDy=0;entryPerimeter=0;" edge="1" parent="1" source="JYT8Hz0EhNFGr_55AyaU-50" target="JYT8Hz0EhNFGr_55AyaU-90">
          <mxGeometry x="-1" relative="1" as="geometry">
            <mxPoint x="1310" y="390" as="targetPoint" />
          </mxGeometry>
        </mxCell>
        <mxCell id="JYT8Hz0EhNFGr_55AyaU-52" value="yes" style="edgeStyle=orthogonalEdgeStyle;html=1;align=left;verticalAlign=top;endArrow=open;endSize=8;strokeColor=#ff0000;rounded=0;" edge="1" parent="1" source="JYT8Hz0EhNFGr_55AyaU-50" target="JYT8Hz0EhNFGr_55AyaU-61">
          <mxGeometry x="-1" relative="1" as="geometry">
            <mxPoint x="1190" y="510" as="targetPoint" />
          </mxGeometry>
        </mxCell>
        <mxCell id="JYT8Hz0EhNFGr_55AyaU-60" value="" style="html=1;verticalAlign=bottom;endArrow=open;endSize=8;strokeColor=#ff0000;rounded=0;" edge="1" parent="1" source="JYT8Hz0EhNFGr_55AyaU-68" target="JYT8Hz0EhNFGr_55AyaU-69">
          <mxGeometry relative="1" as="geometry">
            <mxPoint x="565.24" y="1040" as="targetPoint" />
            <mxPoint x="439.9990361445782" y="1040.379518072289" as="sourcePoint" />
          </mxGeometry>
        </mxCell>
        <mxCell id="JYT8Hz0EhNFGr_55AyaU-61" value="sync data" style="rounded=1;whiteSpace=wrap;html=1;arcSize=40;fontColor=#000000;fillColor=#ffffc0;strokeColor=#ff0000;" vertex="1" parent="1">
          <mxGeometry x="1130" y="470" width="120" height="40" as="geometry" />
        </mxCell>
        <mxCell id="JYT8Hz0EhNFGr_55AyaU-62" value="" style="edgeStyle=orthogonalEdgeStyle;html=1;verticalAlign=bottom;endArrow=open;endSize=8;strokeColor=#ff0000;rounded=0;" edge="1" source="JYT8Hz0EhNFGr_55AyaU-61" parent="1" target="JYT8Hz0EhNFGr_55AyaU-71">
          <mxGeometry relative="1" as="geometry">
            <mxPoint x="1430" y="640" as="targetPoint" />
          </mxGeometry>
        </mxCell>
        <mxCell id="JYT8Hz0EhNFGr_55AyaU-63" value="finished" style="rhombus;whiteSpace=wrap;html=1;fontColor=#000000;fillColor=#ffffc0;strokeColor=#ff0000;" vertex="1" parent="1">
          <mxGeometry x="260" y="850" width="80" height="40" as="geometry" />
        </mxCell>
        <mxCell id="JYT8Hz0EhNFGr_55AyaU-64" value="no" style="edgeStyle=orthogonalEdgeStyle;html=1;align=left;verticalAlign=bottom;endArrow=open;endSize=8;strokeColor=#ff0000;rounded=0;entryX=0.4;entryY=0.4;entryDx=0;entryDy=0;entryPerimeter=0;" edge="1" parent="1" source="JYT8Hz0EhNFGr_55AyaU-63" target="JYT8Hz0EhNFGr_55AyaU-139">
          <mxGeometry x="-1" relative="1" as="geometry">
            <mxPoint x="180" y="940" as="targetPoint" />
            <Array as="points">
              <mxPoint x="220" y="870" />
              <mxPoint x="220" y="940" />
              <mxPoint x="100" y="940" />
              <mxPoint x="100" y="1221" />
            </Array>
          </mxGeometry>
        </mxCell>
        <mxCell id="JYT8Hz0EhNFGr_55AyaU-65" value="yes" style="edgeStyle=orthogonalEdgeStyle;html=1;align=left;verticalAlign=top;endArrow=open;endSize=8;strokeColor=#ff0000;rounded=0;" edge="1" parent="1" source="JYT8Hz0EhNFGr_55AyaU-63" target="JYT8Hz0EhNFGr_55AyaU-68">
          <mxGeometry x="-1" relative="1" as="geometry">
            <mxPoint x="300" y="990" as="targetPoint" />
          </mxGeometry>
        </mxCell>
        <mxCell id="JYT8Hz0EhNFGr_55AyaU-68" value="sync data" style="rounded=1;whiteSpace=wrap;html=1;arcSize=40;fontColor=#000000;fillColor=#ffffc0;strokeColor=#ff0000;" vertex="1" parent="1">
          <mxGeometry x="240" y="990" width="120" height="40" as="geometry" />
        </mxCell>
        <mxCell id="JYT8Hz0EhNFGr_55AyaU-69" value="Log out" style="rounded=1;whiteSpace=wrap;html=1;arcSize=40;fontColor=#000000;fillColor=#ffffc0;strokeColor=#ff0000;" vertex="1" parent="1">
          <mxGeometry x="240" y="1090" width="120" height="40" as="geometry" />
        </mxCell>
        <mxCell id="JYT8Hz0EhNFGr_55AyaU-70" value="" style="edgeStyle=orthogonalEdgeStyle;html=1;verticalAlign=bottom;endArrow=open;endSize=8;strokeColor=#ff0000;rounded=0;" edge="1" source="JYT8Hz0EhNFGr_55AyaU-69" parent="1" target="JYT8Hz0EhNFGr_55AyaU-82">
          <mxGeometry relative="1" as="geometry">
            <mxPoint x="310" y="1190" as="targetPoint" />
          </mxGeometry>
        </mxCell>
        <mxCell id="JYT8Hz0EhNFGr_55AyaU-71" value="Log out" style="rounded=1;whiteSpace=wrap;html=1;arcSize=40;fontColor=#000000;fillColor=#ffffc0;strokeColor=#ff0000;" vertex="1" parent="1">
          <mxGeometry x="1410" y="470" width="120" height="40" as="geometry" />
        </mxCell>
        <mxCell id="JYT8Hz0EhNFGr_55AyaU-72" value="" style="edgeStyle=orthogonalEdgeStyle;html=1;verticalAlign=bottom;endArrow=open;endSize=8;strokeColor=#ff0000;rounded=0;entryX=0.5;entryY=0;entryDx=0;entryDy=0;" edge="1" parent="1" source="JYT8Hz0EhNFGr_55AyaU-71" target="JYT8Hz0EhNFGr_55AyaU-82">
          <mxGeometry relative="1" as="geometry">
            <mxPoint x="1560" y="870" as="targetPoint" />
            <Array as="points">
              <mxPoint x="1590" y="490" />
            </Array>
          </mxGeometry>
        </mxCell>
        <mxCell id="JYT8Hz0EhNFGr_55AyaU-73" value="finished" style="rhombus;whiteSpace=wrap;html=1;fontColor=#000000;fillColor=#ffffc0;strokeColor=#ff0000;" vertex="1" parent="1">
          <mxGeometry x="690" y="800" width="80" height="40" as="geometry" />
        </mxCell>
        <mxCell id="JYT8Hz0EhNFGr_55AyaU-74" value="no" style="edgeStyle=orthogonalEdgeStyle;html=1;align=left;verticalAlign=bottom;endArrow=open;endSize=8;strokeColor=#ff0000;rounded=0;" edge="1" parent="1" source="JYT8Hz0EhNFGr_55AyaU-73" target="JYT8Hz0EhNFGr_55AyaU-101">
          <mxGeometry x="-0.9231" y="20" relative="1" as="geometry">
            <mxPoint x="710" y="830" as="targetPoint" />
            <mxPoint as="offset" />
            <Array as="points">
              <mxPoint x="620" y="820" />
              <mxPoint x="620" y="965" />
            </Array>
          </mxGeometry>
        </mxCell>
        <mxCell id="JYT8Hz0EhNFGr_55AyaU-75" value="yes" style="edgeStyle=orthogonalEdgeStyle;html=1;align=left;verticalAlign=top;endArrow=open;endSize=8;strokeColor=#ff0000;rounded=0;" edge="1" parent="1" source="JYT8Hz0EhNFGr_55AyaU-73" target="JYT8Hz0EhNFGr_55AyaU-77">
          <mxGeometry x="-0.7143" y="20" relative="1" as="geometry">
            <mxPoint x="740" y="1000" as="targetPoint" />
            <mxPoint as="offset" />
            <mxPoint x="770" y="770" as="sourcePoint" />
          </mxGeometry>
        </mxCell>
        <mxCell id="JYT8Hz0EhNFGr_55AyaU-76" value="" style="html=1;verticalAlign=bottom;endArrow=open;endSize=8;strokeColor=#ff0000;rounded=0;edgeStyle=orthogonalEdgeStyle;" edge="1" parent="1" source="JYT8Hz0EhNFGr_55AyaU-77" target="JYT8Hz0EhNFGr_55AyaU-78">
          <mxGeometry relative="1" as="geometry">
            <mxPoint x="1145.24" y="940" as="targetPoint" />
            <mxPoint x="1019.9990361445782" y="940.3795180722891" as="sourcePoint" />
            <Array as="points">
              <mxPoint x="930" y="870" />
            </Array>
          </mxGeometry>
        </mxCell>
        <mxCell id="JYT8Hz0EhNFGr_55AyaU-77" value="sync data" style="rounded=1;whiteSpace=wrap;html=1;arcSize=40;fontColor=#000000;fillColor=#ffffc0;strokeColor=#ff0000;" vertex="1" parent="1">
          <mxGeometry x="840" y="800" width="120" height="40" as="geometry" />
        </mxCell>
        <mxCell id="JYT8Hz0EhNFGr_55AyaU-78" value="Log out" style="rounded=1;whiteSpace=wrap;html=1;arcSize=40;fontColor=#000000;fillColor=#ffffc0;strokeColor=#ff0000;" vertex="1" parent="1">
          <mxGeometry x="980" y="850" width="120" height="40" as="geometry" />
        </mxCell>
        <mxCell id="JYT8Hz0EhNFGr_55AyaU-79" style="edgeStyle=orthogonalEdgeStyle;rounded=0;orthogonalLoop=1;jettySize=auto;html=1;exitX=0.5;exitY=1;exitDx=0;exitDy=0;" edge="1" parent="1" source="JYT8Hz0EhNFGr_55AyaU-77" target="JYT8Hz0EhNFGr_55AyaU-77">
          <mxGeometry relative="1" as="geometry" />
        </mxCell>
        <mxCell id="JYT8Hz0EhNFGr_55AyaU-81" value="" style="ellipse;html=1;shape=endState;fillColor=#000000;strokeColor=#ff0000;" vertex="1" parent="1">
          <mxGeometry x="1730" y="1050" width="30" height="30" as="geometry" />
        </mxCell>
        <mxCell id="JYT8Hz0EhNFGr_55AyaU-82" value="" style="rhombus;whiteSpace=wrap;html=1;fontColor=#000000;fillColor=#ffffc0;strokeColor=#ff0000;" vertex="1" parent="1">
          <mxGeometry x="1550" y="1040" width="80" height="40" as="geometry" />
        </mxCell>
        <mxCell id="JYT8Hz0EhNFGr_55AyaU-87" value="" style="edgeStyle=orthogonalEdgeStyle;html=1;verticalAlign=bottom;endArrow=open;endSize=8;strokeColor=#ff0000;rounded=0;entryX=0;entryY=0.5;entryDx=0;entryDy=0;" edge="1" parent="1" source="JYT8Hz0EhNFGr_55AyaU-78" target="JYT8Hz0EhNFGr_55AyaU-82">
          <mxGeometry relative="1" as="geometry">
            <mxPoint x="540" y="980" as="targetPoint" />
            <mxPoint x="490" y="900" as="sourcePoint" />
          </mxGeometry>
        </mxCell>
        <mxCell id="JYT8Hz0EhNFGr_55AyaU-88" value="mark task finished" style="rounded=1;whiteSpace=wrap;html=1;arcSize=40;fontColor=#000000;fillColor=#ffffc0;strokeColor=#ff0000;" vertex="1" parent="1">
          <mxGeometry x="425" y="780" width="120" height="40" as="geometry" />
        </mxCell>
        <mxCell id="JYT8Hz0EhNFGr_55AyaU-89" value="" style="edgeStyle=orthogonalEdgeStyle;html=1;verticalAlign=bottom;endArrow=open;endSize=8;strokeColor=#ff0000;rounded=0;" edge="1" source="JYT8Hz0EhNFGr_55AyaU-128" parent="1" target="JYT8Hz0EhNFGr_55AyaU-73">
          <mxGeometry relative="1" as="geometry">
            <mxPoint x="480" y="1040" as="targetPoint" />
            <mxPoint x="580" y="1010" as="sourcePoint" />
            <Array as="points">
              <mxPoint x="580" y="965" />
              <mxPoint x="580" y="760" />
              <mxPoint x="730" y="760" />
            </Array>
          </mxGeometry>
        </mxCell>
        <mxCell id="JYT8Hz0EhNFGr_55AyaU-90" value="" style="shape=line;html=1;strokeWidth=6;strokeColor=#ff0000;rotation=-90;" vertex="1" parent="1">
          <mxGeometry x="1290" y="390" width="60" height="10" as="geometry" />
        </mxCell>
        <mxCell id="JYT8Hz0EhNFGr_55AyaU-91" value="" style="edgeStyle=orthogonalEdgeStyle;html=1;verticalAlign=bottom;endArrow=open;endSize=8;strokeColor=#ff0000;rounded=0;exitX=0.45;exitY=0.5;exitDx=0;exitDy=0;exitPerimeter=0;" edge="1" source="JYT8Hz0EhNFGr_55AyaU-90" parent="1" target="JYT8Hz0EhNFGr_55AyaU-97">
          <mxGeometry relative="1" as="geometry">
            <mxPoint x="1460" y="425" as="targetPoint" />
          </mxGeometry>
        </mxCell>
        <mxCell id="JYT8Hz0EhNFGr_55AyaU-93" value="" style="edgeStyle=orthogonalEdgeStyle;html=1;verticalAlign=bottom;endArrow=open;endSize=8;strokeColor=#ff0000;rounded=0;exitX=0.567;exitY=0.5;exitDx=0;exitDy=0;exitPerimeter=0;" edge="1" parent="1" source="JYT8Hz0EhNFGr_55AyaU-90" target="JYT8Hz0EhNFGr_55AyaU-95">
          <mxGeometry relative="1" as="geometry">
            <mxPoint x="1460" y="320" as="targetPoint" />
            <mxPoint x="1335" y="405" as="sourcePoint" />
            <Array as="points">
              <mxPoint x="1390" y="390" />
              <mxPoint x="1390" y="360" />
            </Array>
          </mxGeometry>
        </mxCell>
        <mxCell id="JYT8Hz0EhNFGr_55AyaU-95" value="edit tasks" style="rounded=1;whiteSpace=wrap;html=1;arcSize=40;fontColor=#000000;fillColor=#ffffc0;strokeColor=#ff0000;" vertex="1" parent="1">
          <mxGeometry x="1460" y="340" width="120" height="40" as="geometry" />
        </mxCell>
        <mxCell id="JYT8Hz0EhNFGr_55AyaU-96" value="" style="edgeStyle=orthogonalEdgeStyle;html=1;verticalAlign=bottom;endArrow=open;endSize=8;strokeColor=#ff0000;rounded=0;entryX=0.75;entryY=0.5;entryDx=0;entryDy=0;entryPerimeter=0;" edge="1" source="JYT8Hz0EhNFGr_55AyaU-95" parent="1" target="JYT8Hz0EhNFGr_55AyaU-99">
          <mxGeometry relative="1" as="geometry">
            <mxPoint x="1710" y="380" as="targetPoint" />
          </mxGeometry>
        </mxCell>
        <mxCell id="JYT8Hz0EhNFGr_55AyaU-97" value="delete tasks" style="rounded=1;whiteSpace=wrap;html=1;arcSize=40;fontColor=#000000;fillColor=#ffffc0;strokeColor=#ff0000;" vertex="1" parent="1">
          <mxGeometry x="1460" y="400" width="120" height="40" as="geometry" />
        </mxCell>
        <mxCell id="JYT8Hz0EhNFGr_55AyaU-98" value="" style="edgeStyle=orthogonalEdgeStyle;html=1;verticalAlign=bottom;endArrow=open;endSize=8;strokeColor=#ff0000;rounded=0;entryX=0.42;entryY=0.5;entryDx=0;entryDy=0;entryPerimeter=0;" edge="1" parent="1" source="JYT8Hz0EhNFGr_55AyaU-97" target="JYT8Hz0EhNFGr_55AyaU-99">
          <mxGeometry relative="1" as="geometry">
            <mxPoint x="1710" y="400" as="targetPoint" />
          </mxGeometry>
        </mxCell>
        <mxCell id="JYT8Hz0EhNFGr_55AyaU-99" value="" style="shape=line;html=1;strokeWidth=6;strokeColor=#ff0000;rotation=-90;" vertex="1" parent="1">
          <mxGeometry x="1630" y="390" width="75" height="10" as="geometry" />
        </mxCell>
        <mxCell id="JYT8Hz0EhNFGr_55AyaU-100" value="" style="edgeStyle=orthogonalEdgeStyle;html=1;verticalAlign=bottom;endArrow=open;endSize=8;strokeColor=#ff0000;rounded=0;entryX=0.5;entryY=0;entryDx=0;entryDy=0;" edge="1" source="JYT8Hz0EhNFGr_55AyaU-99" parent="1" target="JYT8Hz0EhNFGr_55AyaU-125">
          <mxGeometry relative="1" as="geometry">
            <mxPoint x="1950" y="395" as="targetPoint" />
            <Array as="points">
              <mxPoint x="1760" y="395" />
              <mxPoint x="1760" y="310" />
              <mxPoint x="910" y="310" />
            </Array>
          </mxGeometry>
        </mxCell>
        <mxCell id="JYT8Hz0EhNFGr_55AyaU-101" value="" style="shape=line;html=1;strokeWidth=6;strokeColor=#ff0000;rotation=-90;" vertex="1" parent="1">
          <mxGeometry x="640" y="960" width="60" height="10" as="geometry" />
        </mxCell>
        <mxCell id="JYT8Hz0EhNFGr_55AyaU-102" value="" style="edgeStyle=orthogonalEdgeStyle;html=1;verticalAlign=bottom;endArrow=open;endSize=8;strokeColor=#ff0000;rounded=0;exitX=0.45;exitY=0.5;exitDx=0;exitDy=0;exitPerimeter=0;" edge="1" parent="1" source="JYT8Hz0EhNFGr_55AyaU-101" target="JYT8Hz0EhNFGr_55AyaU-106">
          <mxGeometry relative="1" as="geometry">
            <mxPoint x="810" y="995" as="targetPoint" />
          </mxGeometry>
        </mxCell>
        <mxCell id="JYT8Hz0EhNFGr_55AyaU-103" value="" style="edgeStyle=orthogonalEdgeStyle;html=1;verticalAlign=bottom;endArrow=open;endSize=8;strokeColor=#ff0000;rounded=0;" edge="1" parent="1" target="JYT8Hz0EhNFGr_55AyaU-104">
          <mxGeometry relative="1" as="geometry">
            <mxPoint x="810" y="890" as="targetPoint" />
            <mxPoint x="670" y="965" as="sourcePoint" />
            <Array as="points">
              <mxPoint x="740" y="960" />
              <mxPoint x="740" y="930" />
            </Array>
          </mxGeometry>
        </mxCell>
        <mxCell id="JYT8Hz0EhNFGr_55AyaU-104" value="edit tasks" style="rounded=1;whiteSpace=wrap;html=1;arcSize=40;fontColor=#000000;fillColor=#ffffc0;strokeColor=#ff0000;" vertex="1" parent="1">
          <mxGeometry x="810" y="910" width="120" height="40" as="geometry" />
        </mxCell>
        <mxCell id="JYT8Hz0EhNFGr_55AyaU-105" value="" style="edgeStyle=orthogonalEdgeStyle;html=1;verticalAlign=bottom;endArrow=open;endSize=8;strokeColor=#ff0000;rounded=0;entryX=0.75;entryY=0.5;entryDx=0;entryDy=0;entryPerimeter=0;" edge="1" parent="1" source="JYT8Hz0EhNFGr_55AyaU-104" target="JYT8Hz0EhNFGr_55AyaU-108">
          <mxGeometry relative="1" as="geometry">
            <mxPoint x="1060" y="950" as="targetPoint" />
          </mxGeometry>
        </mxCell>
        <mxCell id="JYT8Hz0EhNFGr_55AyaU-106" value="delete tasks" style="rounded=1;whiteSpace=wrap;html=1;arcSize=40;fontColor=#000000;fillColor=#ffffc0;strokeColor=#ff0000;" vertex="1" parent="1">
          <mxGeometry x="810" y="970" width="120" height="40" as="geometry" />
        </mxCell>
        <mxCell id="JYT8Hz0EhNFGr_55AyaU-107" value="" style="edgeStyle=orthogonalEdgeStyle;html=1;verticalAlign=bottom;endArrow=open;endSize=8;strokeColor=#ff0000;rounded=0;entryX=0.42;entryY=0.5;entryDx=0;entryDy=0;entryPerimeter=0;" edge="1" parent="1" source="JYT8Hz0EhNFGr_55AyaU-106" target="JYT8Hz0EhNFGr_55AyaU-108">
          <mxGeometry relative="1" as="geometry">
            <mxPoint x="1060" y="970" as="targetPoint" />
          </mxGeometry>
        </mxCell>
        <mxCell id="JYT8Hz0EhNFGr_55AyaU-108" value="" style="shape=line;html=1;strokeWidth=6;strokeColor=#ff0000;rotation=-90;" vertex="1" parent="1">
          <mxGeometry x="980" y="960" width="75" height="10" as="geometry" />
        </mxCell>
        <mxCell id="JYT8Hz0EhNFGr_55AyaU-109" value="" style="shape=line;html=1;strokeWidth=6;strokeColor=#ff0000;rotation=-90;" vertex="1" parent="1">
          <mxGeometry x="1045" y="760" width="60" height="10" as="geometry" />
        </mxCell>
        <mxCell id="JYT8Hz0EhNFGr_55AyaU-110" value="" style="edgeStyle=orthogonalEdgeStyle;html=1;verticalAlign=bottom;endArrow=open;endSize=8;strokeColor=#ff0000;rounded=0;exitX=0.45;exitY=0.5;exitDx=0;exitDy=0;exitPerimeter=0;" edge="1" parent="1" source="JYT8Hz0EhNFGr_55AyaU-109" target="JYT8Hz0EhNFGr_55AyaU-114">
          <mxGeometry relative="1" as="geometry">
            <mxPoint x="1215" y="795" as="targetPoint" />
          </mxGeometry>
        </mxCell>
        <mxCell id="JYT8Hz0EhNFGr_55AyaU-111" value="" style="edgeStyle=orthogonalEdgeStyle;html=1;verticalAlign=bottom;endArrow=open;endSize=8;strokeColor=#ff0000;rounded=0;" edge="1" parent="1" target="JYT8Hz0EhNFGr_55AyaU-112">
          <mxGeometry relative="1" as="geometry">
            <mxPoint x="1215" y="690" as="targetPoint" />
            <mxPoint x="1075" y="765" as="sourcePoint" />
            <Array as="points">
              <mxPoint x="1145" y="760" />
              <mxPoint x="1145" y="730" />
            </Array>
          </mxGeometry>
        </mxCell>
        <mxCell id="JYT8Hz0EhNFGr_55AyaU-112" value="edit tasks" style="rounded=1;whiteSpace=wrap;html=1;arcSize=40;fontColor=#000000;fillColor=#ffffc0;strokeColor=#ff0000;" vertex="1" parent="1">
          <mxGeometry x="1215" y="710" width="120" height="40" as="geometry" />
        </mxCell>
        <mxCell id="JYT8Hz0EhNFGr_55AyaU-113" value="" style="edgeStyle=orthogonalEdgeStyle;html=1;verticalAlign=bottom;endArrow=open;endSize=8;strokeColor=#ff0000;rounded=0;entryX=0.75;entryY=0.5;entryDx=0;entryDy=0;entryPerimeter=0;" edge="1" parent="1" source="JYT8Hz0EhNFGr_55AyaU-112" target="JYT8Hz0EhNFGr_55AyaU-116">
          <mxGeometry relative="1" as="geometry">
            <mxPoint x="1465" y="750" as="targetPoint" />
          </mxGeometry>
        </mxCell>
        <mxCell id="JYT8Hz0EhNFGr_55AyaU-114" value="delete tasks" style="rounded=1;whiteSpace=wrap;html=1;arcSize=40;fontColor=#000000;fillColor=#ffffc0;strokeColor=#ff0000;" vertex="1" parent="1">
          <mxGeometry x="1215" y="770" width="120" height="40" as="geometry" />
        </mxCell>
        <mxCell id="JYT8Hz0EhNFGr_55AyaU-115" value="" style="edgeStyle=orthogonalEdgeStyle;html=1;verticalAlign=bottom;endArrow=open;endSize=8;strokeColor=#ff0000;rounded=0;entryX=0.42;entryY=0.5;entryDx=0;entryDy=0;entryPerimeter=0;" edge="1" parent="1" source="JYT8Hz0EhNFGr_55AyaU-114" target="JYT8Hz0EhNFGr_55AyaU-116">
          <mxGeometry relative="1" as="geometry">
            <mxPoint x="1465" y="770" as="targetPoint" />
          </mxGeometry>
        </mxCell>
        <mxCell id="JYT8Hz0EhNFGr_55AyaU-116" value="" style="shape=line;html=1;strokeWidth=6;strokeColor=#ff0000;rotation=-90;" vertex="1" parent="1">
          <mxGeometry x="1385" y="760" width="75" height="10" as="geometry" />
        </mxCell>
        <mxCell id="JYT8Hz0EhNFGr_55AyaU-119" value="" style="edgeStyle=orthogonalEdgeStyle;html=1;verticalAlign=bottom;endArrow=open;endSize=8;strokeColor=#ff0000;rounded=0;exitX=0.58;exitY=0.35;exitDx=0;exitDy=0;exitPerimeter=0;" edge="1" parent="1" source="JYT8Hz0EhNFGr_55AyaU-108" target="JYT8Hz0EhNFGr_55AyaU-129">
          <mxGeometry relative="1" as="geometry">
            <mxPoint x="1150" y="980" as="targetPoint" />
            <mxPoint x="450" y="980" as="sourcePoint" />
            <Array as="points">
              <mxPoint x="1080" y="959" />
              <mxPoint x="1080" y="1030" />
              <mxPoint x="400" y="1030" />
              <mxPoint x="400" y="890" />
            </Array>
          </mxGeometry>
        </mxCell>
        <mxCell id="JYT8Hz0EhNFGr_55AyaU-122" value="" style="rhombus;whiteSpace=wrap;html=1;fontColor=#000000;fillColor=#ffffc0;strokeColor=#ff0000;" vertex="1" parent="1">
          <mxGeometry x="780" y="620" width="80" height="40" as="geometry" />
        </mxCell>
        <mxCell id="JYT8Hz0EhNFGr_55AyaU-124" value="" style="edgeStyle=orthogonalEdgeStyle;html=1;verticalAlign=bottom;endArrow=open;endSize=8;strokeColor=#ff0000;rounded=0;exitX=0.5;exitY=0.55;exitDx=0;exitDy=0;exitPerimeter=0;" edge="1" parent="1" source="JYT8Hz0EhNFGr_55AyaU-116" target="JYT8Hz0EhNFGr_55AyaU-122">
          <mxGeometry relative="1" as="geometry">
            <mxPoint x="1900" y="490" as="targetPoint" />
            <mxPoint x="1530" y="780" as="sourcePoint" />
            <Array as="points">
              <mxPoint x="1423" y="770" />
              <mxPoint x="1500" y="770" />
              <mxPoint x="1500" y="820" />
              <mxPoint x="1000" y="820" />
              <mxPoint x="1000" y="690" />
              <mxPoint x="820" y="690" />
            </Array>
          </mxGeometry>
        </mxCell>
        <mxCell id="JYT8Hz0EhNFGr_55AyaU-125" value="" style="rhombus;whiteSpace=wrap;html=1;fontColor=#000000;fillColor=#ffffc0;strokeColor=#ff0000;" vertex="1" parent="1">
          <mxGeometry x="870" y="370" width="80" height="40" as="geometry" />
        </mxCell>
        <mxCell id="JYT8Hz0EhNFGr_55AyaU-126" value="" style="html=1;verticalAlign=bottom;endArrow=open;endSize=8;strokeColor=#ff0000;rounded=0;" edge="1" parent="1" source="JYT8Hz0EhNFGr_55AyaU-125" target="JYT8Hz0EhNFGr_55AyaU-26">
          <mxGeometry relative="1" as="geometry">
            <mxPoint x="893" y="404" as="targetPoint" />
            <mxPoint x="960" y="480" as="sourcePoint" />
          </mxGeometry>
        </mxCell>
        <mxCell id="JYT8Hz0EhNFGr_55AyaU-127" value="" style="html=1;verticalAlign=bottom;endArrow=open;endSize=8;strokeColor=#ff0000;rounded=0;" edge="1" parent="1" source="JYT8Hz0EhNFGr_55AyaU-122" target="JYT8Hz0EhNFGr_55AyaU-45">
          <mxGeometry relative="1" as="geometry">
            <mxPoint x="790" y="650" as="targetPoint" />
            <mxPoint x="750" y="650" as="sourcePoint" />
          </mxGeometry>
        </mxCell>
        <mxCell id="JYT8Hz0EhNFGr_55AyaU-128" value="create tasks" style="rounded=1;whiteSpace=wrap;html=1;arcSize=40;fontColor=#000000;fillColor=#ffffc0;strokeColor=#ff0000;" vertex="1" parent="1">
          <mxGeometry x="425" y="945" width="120" height="40" as="geometry" />
        </mxCell>
        <mxCell id="JYT8Hz0EhNFGr_55AyaU-129" value="" style="rhombus;whiteSpace=wrap;html=1;fontColor=#000000;fillColor=#ffffc0;strokeColor=#ff0000;" vertex="1" parent="1">
          <mxGeometry x="445" y="870" width="80" height="40" as="geometry" />
        </mxCell>
        <mxCell id="JYT8Hz0EhNFGr_55AyaU-131" value="" style="html=1;verticalAlign=bottom;endArrow=open;endSize=8;strokeColor=#ff0000;rounded=0;" edge="1" parent="1" source="JYT8Hz0EhNFGr_55AyaU-88" target="JYT8Hz0EhNFGr_55AyaU-129">
          <mxGeometry relative="1" as="geometry">
            <mxPoint x="570" y="940" as="targetPoint" />
            <mxPoint x="540" y="850" as="sourcePoint" />
          </mxGeometry>
        </mxCell>
        <mxCell id="JYT8Hz0EhNFGr_55AyaU-132" value="" style="html=1;verticalAlign=bottom;endArrow=open;endSize=8;strokeColor=#ff0000;rounded=0;" edge="1" parent="1" source="JYT8Hz0EhNFGr_55AyaU-129" target="JYT8Hz0EhNFGr_55AyaU-128">
          <mxGeometry relative="1" as="geometry">
            <mxPoint x="510" y="1080" as="targetPoint" />
            <mxPoint x="510" y="1030" as="sourcePoint" />
          </mxGeometry>
        </mxCell>
        <mxCell id="JYT8Hz0EhNFGr_55AyaU-138" value="" style="html=1;verticalAlign=bottom;endArrow=open;endSize=8;strokeColor=#ff0000;rounded=0;" edge="1" parent="1" source="JYT8Hz0EhNFGr_55AyaU-82" target="JYT8Hz0EhNFGr_55AyaU-81">
          <mxGeometry relative="1" as="geometry">
            <mxPoint x="1720" y="790" as="targetPoint" />
            <mxPoint x="1520" y="630" as="sourcePoint" />
          </mxGeometry>
        </mxCell>
        <mxCell id="JYT8Hz0EhNFGr_55AyaU-139" value="" style="shape=line;html=1;strokeWidth=6;strokeColor=#ff0000;rotation=-90;" vertex="1" parent="1">
          <mxGeometry x="110" y="1210" width="60" height="10" as="geometry" />
        </mxCell>
        <mxCell id="JYT8Hz0EhNFGr_55AyaU-140" value="" style="edgeStyle=orthogonalEdgeStyle;html=1;verticalAlign=bottom;endArrow=open;endSize=8;strokeColor=#ff0000;rounded=0;exitX=0.45;exitY=0.5;exitDx=0;exitDy=0;exitPerimeter=0;" edge="1" parent="1" source="JYT8Hz0EhNFGr_55AyaU-139" target="JYT8Hz0EhNFGr_55AyaU-144">
          <mxGeometry relative="1" as="geometry">
            <mxPoint x="280" y="1245" as="targetPoint" />
          </mxGeometry>
        </mxCell>
        <mxCell id="JYT8Hz0EhNFGr_55AyaU-141" value="" style="edgeStyle=orthogonalEdgeStyle;html=1;verticalAlign=bottom;endArrow=open;endSize=8;strokeColor=#ff0000;rounded=0;" edge="1" parent="1" target="JYT8Hz0EhNFGr_55AyaU-142">
          <mxGeometry relative="1" as="geometry">
            <mxPoint x="280" y="1140" as="targetPoint" />
            <mxPoint x="140" y="1215" as="sourcePoint" />
            <Array as="points">
              <mxPoint x="210" y="1210" />
              <mxPoint x="210" y="1180" />
            </Array>
          </mxGeometry>
        </mxCell>
        <mxCell id="JYT8Hz0EhNFGr_55AyaU-142" value="edit tasks" style="rounded=1;whiteSpace=wrap;html=1;arcSize=40;fontColor=#000000;fillColor=#ffffc0;strokeColor=#ff0000;" vertex="1" parent="1">
          <mxGeometry x="280" y="1160" width="120" height="40" as="geometry" />
        </mxCell>
        <mxCell id="JYT8Hz0EhNFGr_55AyaU-143" value="" style="edgeStyle=orthogonalEdgeStyle;html=1;verticalAlign=bottom;endArrow=open;endSize=8;strokeColor=#ff0000;rounded=0;entryX=0.75;entryY=0.5;entryDx=0;entryDy=0;entryPerimeter=0;" edge="1" parent="1" source="JYT8Hz0EhNFGr_55AyaU-142" target="JYT8Hz0EhNFGr_55AyaU-146">
          <mxGeometry relative="1" as="geometry">
            <mxPoint x="530" y="1200" as="targetPoint" />
          </mxGeometry>
        </mxCell>
        <mxCell id="JYT8Hz0EhNFGr_55AyaU-144" value="delete tasks" style="rounded=1;whiteSpace=wrap;html=1;arcSize=40;fontColor=#000000;fillColor=#ffffc0;strokeColor=#ff0000;" vertex="1" parent="1">
          <mxGeometry x="280" y="1220" width="120" height="40" as="geometry" />
        </mxCell>
        <mxCell id="JYT8Hz0EhNFGr_55AyaU-145" value="" style="edgeStyle=orthogonalEdgeStyle;html=1;verticalAlign=bottom;endArrow=open;endSize=8;strokeColor=#ff0000;rounded=0;entryX=0.42;entryY=0.5;entryDx=0;entryDy=0;entryPerimeter=0;" edge="1" parent="1" source="JYT8Hz0EhNFGr_55AyaU-144" target="JYT8Hz0EhNFGr_55AyaU-146">
          <mxGeometry relative="1" as="geometry">
            <mxPoint x="530" y="1220" as="targetPoint" />
          </mxGeometry>
        </mxCell>
        <mxCell id="JYT8Hz0EhNFGr_55AyaU-146" value="" style="shape=line;html=1;strokeWidth=6;strokeColor=#ff0000;rotation=-90;" vertex="1" parent="1">
          <mxGeometry x="450" y="1210" width="75" height="10" as="geometry" />
        </mxCell>
        <mxCell id="JYT8Hz0EhNFGr_55AyaU-149" value="" style="rhombus;whiteSpace=wrap;html=1;fontColor=#000000;fillColor=#ffffc0;strokeColor=#ff0000;" vertex="1" parent="1">
          <mxGeometry x="80" y="790" width="80" height="40" as="geometry" />
        </mxCell>
        <mxCell id="JYT8Hz0EhNFGr_55AyaU-150" value="" style="html=1;verticalAlign=bottom;endArrow=open;endSize=8;strokeColor=#ff0000;rounded=0;" edge="1" parent="1" source="JYT8Hz0EhNFGr_55AyaU-149" target="JYT8Hz0EhNFGr_55AyaU-33">
          <mxGeometry relative="1" as="geometry">
            <mxPoint x="140" y="890" as="targetPoint" />
            <mxPoint x="165" y="975" as="sourcePoint" />
          </mxGeometry>
        </mxCell>
        <mxCell id="JYT8Hz0EhNFGr_55AyaU-151" value="" style="edgeStyle=orthogonalEdgeStyle;html=1;verticalAlign=bottom;endArrow=open;endSize=8;strokeColor=#ff0000;rounded=0;exitX=0.553;exitY=0.15;exitDx=0;exitDy=0;exitPerimeter=0;" edge="1" parent="1" source="JYT8Hz0EhNFGr_55AyaU-146" target="JYT8Hz0EhNFGr_55AyaU-149">
          <mxGeometry relative="1" as="geometry">
            <mxPoint x="290" y="1190" as="targetPoint" />
            <mxPoint x="950" y="1271" as="sourcePoint" />
            <Array as="points">
              <mxPoint x="570" y="1211" />
              <mxPoint x="570" y="1270" />
              <mxPoint x="50" y="1270" />
              <mxPoint x="50" y="810" />
            </Array>
          </mxGeometry>
        </mxCell>
      </root>
    </mxGraphModel>
  </diagram>
  <diagram name="Kopie von Seite-1" id="vAFi_isnhtL60RXCPZ4h">
    <mxGraphModel dx="1548" dy="840" grid="1" gridSize="10" guides="1" tooltips="1" connect="1" arrows="1" fold="1" page="1" pageScale="1" pageWidth="827" pageHeight="1169" math="0" shadow="0">
      <root>
        <mxCell id="6dWCOTsZxHDM4ph1wt8i-0" />
        <mxCell id="6dWCOTsZxHDM4ph1wt8i-1" parent="6dWCOTsZxHDM4ph1wt8i-0" />
        <mxCell id="6dWCOTsZxHDM4ph1wt8i-2" value="" style="ellipse;html=1;shape=startState;fillColor=#000000;strokeColor=#ff0000;" vertex="1" parent="6dWCOTsZxHDM4ph1wt8i-1">
          <mxGeometry x="40" y="370" width="30" height="30" as="geometry" />
        </mxCell>
        <mxCell id="6dWCOTsZxHDM4ph1wt8i-3" value="" style="edgeStyle=orthogonalEdgeStyle;html=1;verticalAlign=bottom;endArrow=open;endSize=8;strokeColor=#ff0000;rounded=0;entryX=0;entryY=0.5;entryDx=0;entryDy=0;" edge="1" parent="6dWCOTsZxHDM4ph1wt8i-1" source="6dWCOTsZxHDM4ph1wt8i-2" target="6dWCOTsZxHDM4ph1wt8i-4">
          <mxGeometry relative="1" as="geometry">
            <mxPoint x="160" y="385" as="targetPoint" />
          </mxGeometry>
        </mxCell>
        <mxCell id="6dWCOTsZxHDM4ph1wt8i-4" value="user" style="rhombus;whiteSpace=wrap;html=1;fontColor=#000000;fillColor=#ffffc0;strokeColor=#ff0000;" vertex="1" parent="6dWCOTsZxHDM4ph1wt8i-1">
          <mxGeometry x="160" y="365" width="80" height="40" as="geometry" />
        </mxCell>
        <mxCell id="6dWCOTsZxHDM4ph1wt8i-5" value="no" style="html=1;align=left;verticalAlign=bottom;endArrow=open;endSize=8;strokeColor=#ff0000;rounded=0;" edge="1" parent="6dWCOTsZxHDM4ph1wt8i-1" source="6dWCOTsZxHDM4ph1wt8i-4" target="6dWCOTsZxHDM4ph1wt8i-9">
          <mxGeometry x="-1" relative="1" as="geometry">
            <mxPoint x="330" y="385" as="targetPoint" />
          </mxGeometry>
        </mxCell>
        <mxCell id="6dWCOTsZxHDM4ph1wt8i-6" value="yes" style="html=1;align=left;verticalAlign=top;endArrow=open;endSize=8;strokeColor=#ff0000;rounded=0;" edge="1" parent="6dWCOTsZxHDM4ph1wt8i-1" source="6dWCOTsZxHDM4ph1wt8i-4" target="6dWCOTsZxHDM4ph1wt8i-7">
          <mxGeometry x="-1" relative="1" as="geometry">
            <mxPoint x="200" y="480" as="targetPoint" />
          </mxGeometry>
        </mxCell>
        <mxCell id="6dWCOTsZxHDM4ph1wt8i-7" value="login" style="rounded=1;whiteSpace=wrap;html=1;arcSize=40;fontColor=#000000;fillColor=#ffffc0;strokeColor=#ff0000;" vertex="1" parent="6dWCOTsZxHDM4ph1wt8i-1">
          <mxGeometry x="170" y="450" width="60" height="40" as="geometry" />
        </mxCell>
        <mxCell id="6dWCOTsZxHDM4ph1wt8i-8" value="" style="html=1;verticalAlign=bottom;endArrow=open;endSize=8;strokeColor=#ff0000;rounded=0;" edge="1" parent="6dWCOTsZxHDM4ph1wt8i-1" source="6dWCOTsZxHDM4ph1wt8i-7">
          <mxGeometry relative="1" as="geometry">
            <mxPoint x="200" y="530" as="targetPoint" />
          </mxGeometry>
        </mxCell>
        <mxCell id="6dWCOTsZxHDM4ph1wt8i-9" value="register" style="rounded=1;whiteSpace=wrap;html=1;arcSize=40;fontColor=#000000;fillColor=#ffffc0;strokeColor=#ff0000;" vertex="1" parent="6dWCOTsZxHDM4ph1wt8i-1">
          <mxGeometry x="294" y="370" width="66" height="40" as="geometry" />
        </mxCell>
        <mxCell id="6dWCOTsZxHDM4ph1wt8i-10" value="" style="html=1;verticalAlign=bottom;endArrow=open;endSize=8;strokeColor=#ff0000;rounded=0;" edge="1" parent="6dWCOTsZxHDM4ph1wt8i-1" source="6dWCOTsZxHDM4ph1wt8i-9" target="6dWCOTsZxHDM4ph1wt8i-11">
          <mxGeometry relative="1" as="geometry">
            <mxPoint x="354" y="490" as="targetPoint" />
          </mxGeometry>
        </mxCell>
        <mxCell id="6dWCOTsZxHDM4ph1wt8i-11" value="create default space" style="rounded=1;whiteSpace=wrap;html=1;arcSize=40;fontColor=#000000;fillColor=#ffffc0;strokeColor=#ff0000;" vertex="1" parent="6dWCOTsZxHDM4ph1wt8i-1">
          <mxGeometry x="390" y="370" width="120" height="40" as="geometry" />
        </mxCell>
        <mxCell id="6dWCOTsZxHDM4ph1wt8i-12" value="" style="html=1;verticalAlign=bottom;endArrow=open;endSize=8;strokeColor=#ff0000;rounded=0;" edge="1" parent="6dWCOTsZxHDM4ph1wt8i-1" source="6dWCOTsZxHDM4ph1wt8i-11">
          <mxGeometry relative="1" as="geometry">
            <mxPoint x="450" y="460" as="targetPoint" />
          </mxGeometry>
        </mxCell>
      </root>
    </mxGraphModel>
  </diagram>
</mxfile>
